<?xml version="1.0" encoding="UTF-8" standalone="no"?>
<!DOCTYPE svg PUBLIC "-//W3C//DTD SVG 1.1//EN"
 "http://www.w3.org/Graphics/SVG/1.1/DTD/svg11.dtd">
<!-- Generated by graphviz version 2.26.3 (20100126.1600)
 -->
<!-- Title: G Pages: 1 -->
<svg width="358pt" height="406pt"
 viewBox="0.00 0.00 358.00 406.00" xmlns="http://www.w3.org/2000/svg" xmlns:xlink="http://www.w3.org/1999/xlink">
<g id="graph1" class="graph" transform="scale(1 1) rotate(0) translate(4 402)">
<title>G</title>
<polygon fill="white" stroke="white" points="-4,5 -4,-402 355,-402 355,5 -4,5"/>
<g id="graph2" class="cluster"><title>cluster_Crunch</title>
<polyline fill="none" stroke="gray" points="204,-8 330,-8 "/>
<path fill="none" stroke="gray" d="M330,-8C336,-8 342,-14 342,-20"/>
<polyline fill="none" stroke="gray" points="342,-20 342,-378 "/>
<path fill="none" stroke="gray" d="M342,-378C342,-384 336,-390 330,-390"/>
<polyline fill="none" stroke="gray" points="330,-390 204,-390 "/>
<path fill="none" stroke="gray" d="M204,-390C198,-390 192,-384 192,-378"/>
<polyline fill="none" stroke="gray" points="192,-378 192,-20 "/>
<path fill="none" stroke="gray" d="M192,-20C192,-14 198,-8 204,-8"/>
<text text-anchor="middle" x="267" y="-376.1" font-family="Times Roman,serif" font-size="11.00" fill="gray">Crunch</text>
</g>
<g id="graph3" class="cluster"><title>cluster_Crunch\FastCGI</title>
<polyline fill="none" stroke="gray" points="212,-16 322,-16 "/>
<path fill="none" stroke="gray" d="M322,-16C328,-16 334,-22 334,-28"/>
<polyline fill="none" stroke="gray" points="334,-28 334,-348 "/>
<path fill="none" stroke="gray" d="M334,-348C334,-354 328,-360 322,-360"/>
<polyline fill="none" stroke="gray" points="322,-360 212,-360 "/>
<path fill="none" stroke="gray" d="M212,-360C206,-360 200,-354 200,-348"/>
<polyline fill="none" stroke="gray" points="200,-348 200,-28 "/>
<path fill="none" stroke="gray" d="M200,-28C200,-22 206,-16 212,-16"/>
<text text-anchor="middle" x="267" y="-346.1" font-family="Times Roman,serif" font-size="11.00" fill="gray">FastCGI</text>
</g>
<!-- \\Crunch\\FastCGI\\Request -->
<g id="node3" class="node"><title>\\Crunch\\FastCGI\\Request</title>
<a xlink:href="Request.html" xlink:title="Request" target="_parent">
<polygon fill="none" stroke="black" points="299,-330 235,-330 235,-294 299,-294 299,-330"/>
<text text-anchor="middle" x="267" y="-309.1" font-family="Courier,monospace" font-size="11.00">Request</text>
</a>
</g>
<!-- \\Crunch\\FastCGI\\ResponseBuilder -->
<g id="node4" class="node"><title>\\Crunch\\FastCGI\\ResponseBuilder</title>
<a xlink:href="ResponseBuilder.html" xlink:title="ResponseBuilder" target="_parent">
<polygon fill="none" stroke="black" points="326,-276 208,-276 208,-240 326,-240 326,-276"/>
<text text-anchor="middle" x="267" y="-255.1" font-family="Courier,monospace" font-size="11.00">ResponseBuilder</text>
</a>
</g>
<!-- \\Crunch\\FastCGI\\Response -->
<g id="node5" class="node"><title>\\Crunch\\FastCGI\\Response</title>
<a xlink:href="Response.html" xlink:title="Response" target="_parent">
<polygon fill="none" stroke="black" points="302,-222 232,-222 232,-186 302,-186 302,-222"/>
<text text-anchor="middle" x="267" y="-201.1" font-family="Courier,monospace" font-size="11.00">Response</text>
</a>
</g>
<!-- \\Crunch\\FastCGI\\Connection -->
<g id="node6" class="node"><title>\\Crunch\\FastCGI\\Connection</title>
<a xlink:href="Connection.html" xlink:title="Connection" target="_parent">
<polygon fill="none" stroke="black" points="309,-168 225,-168 225,-132 309,-132 309,-168"/>
<text text-anchor="middle" x="267" y="-147.1" font-family="Courier,monospace" font-size="11.00">Connection</text>
</a>
</g>
<!-- \\Crunch\\FastCGI\\Client -->
<g id="node7" class="node"><title>\\Crunch\\FastCGI\\Client</title>
<a xlink:href="Client.html" xlink:title="Client" target="_parent">
<polygon fill="none" stroke="black" points="295,-114 239,-114 239,-78 295,-78 295,-114"/>
<text text-anchor="middle" x="267" y="-93.1" font-family="Courier,monospace" font-size="11.00">Client</text>
</a>
</g>
<!-- \\Crunch\\FastCGI\\Record -->
<g id="node8" class="node"><title>\\Crunch\\FastCGI\\Record</title>
<a xlink:href="Record.html" xlink:title="Record" target="_parent">
<polygon fill="none" stroke="black" points="295,-60 239,-60 239,-24 295,-24 295,-60"/>
<text text-anchor="middle" x="267" y="-39.1" font-family="Courier,monospace" font-size="11.00">Record</text>
</a>
</g>
<!-- \\Countable -->
<g id="node10" class="node"><title>\\Countable</title>
<ellipse fill="none" stroke="black" cx="68" cy="-42" rx="67.8823" ry="18.3848"/>
<text text-anchor="middle" x="68" y="-38.4" font-family="Times Roman,serif" font-size="14.00" fill="gray">\\Countable</text>
</g>
<!-- \\Crunch\\FastCGI\\Record&#45;&gt;\\Countable -->
<g id="edge4" class="edge"><title>\\Crunch\\FastCGI\\Record&#45;&gt;\\Countable</title>
<path fill="none" stroke="black" stroke-dasharray="1,5" d="M238.488,-42C214.535,-42 179.129,-42 146.781,-42"/>
<polygon fill="none" stroke="black" points="146.404,-38.5001 136.404,-42 146.404,-45.5001 146.404,-38.5001"/>
</g>
</g>
</svg>
